# xmcd
#
# Track frame offsets:
#  150
#  11924
#  25632
#  37797
#  49724
#  63193
#  74846
#  86430
#  98773
#  110996
#  121826
#  133601
#  145581
#  160003
#  171024
#  184797
#
# Disc length: 2584 seconds
#
# Revision: 0
# Processed by: cddbd v1.5.2PL0 Copyright (c) Steve Scherf et al.
# Submitted via: AltoMP3_Maker 3.0
#
DISCID=cf0a1610
DTITLE=Various Artist - Country Classics Vol 6
DYEAR=1900
DGENRE=
TTITLE0=Making Believe
TTITLE1=Ruby Tuesday
TTITLE2=On Top Of Old Smokey
TTITLE3=Careless Kisses
TTITLE4=Hot Diggety Dog
TTITLE5=Kaw-Liga
TTITLE6=Fifty-Fifty Honky Tonkin"
TTITLE7=The Streamlined Connon Ball
TTITLE8=You Love Me Just Enough To Hurt Me
TTITLE9=Loose Talk
TTITLE10=Back In The Saddle Again
TTITLE11=Footprints In the Snow
TTITLE12=Leanin" On The Old Top Rail
TTITLE13=Forever And Always
TTITLE14=A Heartsick Soldier On Heartbreak Ridge
TTITLE15=Rawhide
EXTD=
EXTT0=
EXTT1=
EXTT2=
EXTT3=
EXTT4=
EXTT5=
EXTT6=
EXTT7=
EXTT8=
EXTT9=
EXTT10=
EXTT11=
EXTT12=
EXTT13=
EXTT14=
EXTT15=
PLAYORDER=
